#N canvas 356 38 1512 884 12;
#X obj 63 36 tgl 19 0 empty empty empty 0 -10 0 12 #fcfcfc #000000 #000000 0 1;
#X obj 292 729 netsend -u -b;
#X obj 259 553 noteout;
#X obj 398 639 oscparse;
#X listbox 398 665 20 0 0 0 - - - 0;
#X obj 203 587 oscformat -f f x;
#X msg 346 698 connect localhost 12345;
#X obj 393 587 oscformat -f f y;
#X obj 62 74 metro 200;
#X text 97 23 MEDIA>MIDI>IACDRIVERS as input and output command-E to edit patch toggle on! connect!;
#X obj 40 211 sel 0 1 2 3 4 5 6 7 8 9 10 11 12 13 14 15;
#X msg 29 255 60;
#X msg 52 280 62;
#X msg 77 313 64;
#X msg 105 334 65;
#X msg 115 250 67;
#X msg 139 278 69;
#X msg 152 305 71;
#X msg 171 332 72;
#X msg 189 246 60;
#X msg 201 272 62;
#X msg 213 298 64;
#X msg 227 326 65;
#X obj 58 103 random 17;
#X msg 255 242 67;
#X msg 271 268 69;
#X msg 287 297 71;
#X msg 305 322 72;
#X obj 410 212 sel 0 1 2 3 4 5 6 7 8 9 10 11 12 13 14 15;
#X msg 397 256 60;
#X msg 420 281 62;
#X msg 445 314 64;
#X msg 473 335 65;
#X msg 483 251 67;
#X msg 507 279 69;
#X msg 520 306 71;
#X msg 539 333 72;
#X msg 557 247 60;
#X msg 569 273 62;
#X msg 581 299 64;
#X msg 595 327 65;
#X msg 623 243 67;
#X msg 639 269 69;
#X msg 655 298 71;
#X msg 673 323 72;
#X obj 409 98 random 17;
#X obj 230 513 makenote 60 200;
#X connect 0 0 8 0;
#X connect 3 0 4 0;
#X connect 5 0 1 0;
#X connect 6 0 1 0;
#X connect 7 0 1 0;
#X connect 7 0 3 0;
#X connect 8 0 23 0;
#X connect 8 0 45 0;
#X connect 10 0 11 0;
#X connect 10 1 12 0;
#X connect 10 2 13 0;
#X connect 10 3 14 0;
#X connect 10 4 15 0;
#X connect 10 5 16 0;
#X connect 10 6 17 0;
#X connect 10 7 18 0;
#X connect 10 8 19 0;
#X connect 10 9 20 0;
#X connect 10 10 21 0;
#X connect 10 11 22 0;
#X connect 10 12 24 0;
#X connect 10 13 25 0;
#X connect 10 14 26 0;
#X connect 10 15 27 0;
#X connect 11 0 46 0;
#X connect 12 0 46 0;
#X connect 13 0 46 0;
#X connect 14 0 46 0;
#X connect 15 0 46 0;
#X connect 16 0 46 0;
#X connect 17 0 46 0;
#X connect 18 0 46 0;
#X connect 19 0 46 0;
#X connect 20 0 46 0;
#X connect 21 0 46 0;
#X connect 23 0 10 0;
#X connect 24 0 46 0;
#X connect 25 0 46 0;
#X connect 26 0 46 0;
#X connect 27 0 46 0;
#X connect 28 0 29 0;
#X connect 28 1 30 0;
#X connect 28 2 31 0;
#X connect 28 3 32 0;
#X connect 28 4 33 0;
#X connect 28 5 34 0;
#X connect 28 6 35 0;
#X connect 28 7 36 0;
#X connect 28 8 37 0;
#X connect 28 9 38 0;
#X connect 28 10 39 0;
#X connect 28 11 40 0;
#X connect 28 12 41 0;
#X connect 28 13 42 0;
#X connect 28 14 43 0;
#X connect 28 15 44 0;
#X connect 29 0 46 1;
#X connect 30 0 46 1;
#X connect 31 0 46 1;
#X connect 32 0 46 1;
#X connect 33 0 46 1;
#X connect 34 0 46 1;
#X connect 35 0 46 1;
#X connect 36 0 46 1;
#X connect 37 0 46 1;
#X connect 38 0 46 1;
#X connect 39 0 46 1;
#X connect 40 0 46 1;
#X connect 42 0 46 1;
#X connect 43 0 46 1;
#X connect 44 0 46 1;
#X connect 45 0 28 0;
#X connect 46 0 2 0;
#X connect 46 0 5 0;
#X connect 46 1 2 1;
#X connect 46 1 7 0;
