#N canvas 0 38 1512 884 12;
#X obj 63 36 tgl 19 0 empty empty empty 0 -10 0 12 #fcfcfc #000000 #000000 0 1;
#X obj 42 149 random 128;
#X obj 127 149 random 128;
#X obj 104 439 netsend -u -b;
#X obj 71 263 noteout;
#X obj 210 349 oscparse;
#X listbox 210 375 20 0 0 0 - - - 0;
#X obj 15 297 oscformat -f f x;
#X msg 158 408 connect localhost 12345;
#X obj 42 223 makenote 60 5000;
#X obj 62 74 metro 500;
#X obj 205 297 oscformat -f f y;
#X text 100 10 MEDIA>MIDI>IACDRIVERS as input and output command-E to edit patch toggle on! connect!;
#X connect 0 0 10 0;
#X connect 1 0 9 0;
#X connect 2 0 9 1;
#X connect 5 0 6 0;
#X connect 7 0 3 0;
#X connect 8 0 3 0;
#X connect 9 0 4 0;
#X connect 9 0 7 0;
#X connect 9 1 4 1;
#X connect 9 1 11 0;
#X connect 10 0 1 0;
#X connect 10 0 2 0;
#X connect 11 0 3 0;
#X connect 11 0 5 0;
