#N canvas 153 25 1822 1051 12;
#X obj 63 36 tgl 19 0 empty empty empty 0 -10 0 12 #fcfcfc #000000 #000000 0 1;
#X obj 42 149 random 128;
#X obj 127 149 random 128;
#X obj 104 439 netsend -u -b;
#X obj 71 263 noteout;
#X obj 210 349 oscparse;
#X listbox 210 375 20 0 0 0 - - - 0;
#X obj 15 297 oscformat -f f x;
#X msg 158 408 connect localhost 12345;
#X obj 42 223 makenote 60 5000;
#X obj 62 74 metro 500;
#X obj 547 495 netsend -u -b;
#X obj 514 319 noteout;
#X obj 653 405 oscparse;
#X listbox 653 431 20 0 0 0 - - - 0;
#X obj 648 353 oscformat -f f /y;
#X msg 601 464 connect localhost 12345;
#X obj 485 279 makenote 60 5000;
#X obj 529 150 notein;
#X msg 410 268;
#X msg 663 279;
#X obj 505 103 midirealtimein;
#X obj 378 125 qlist;
#X obj 205 297 oscformat -f f y;
#X text 97 23 MEDIA>MIDI>IACDRIVERS as input and output command-E to edit patch toggle on! connect!;
#X obj 523 51 text define;
#X obj 458 353 oscformat -f f /x;
#X msg 588 214 1;
#X connect 0 0 10 0;
#X connect 1 0 9 0;
#X connect 2 0 9 1;
#X connect 5 0 6 0;
#X connect 7 0 3 0;
#X connect 8 0 3 0;
#X connect 9 0 4 0;
#X connect 9 0 7 0;
#X connect 9 1 4 1;
#X connect 9 1 23 0;
#X connect 10 0 1 0;
#X connect 10 0 2 0;
#X connect 13 0 14 0;
#X connect 15 0 11 0;
#X connect 15 0 13 0;
#X connect 16 0 11 0;
#X connect 17 0 12 0;
#X connect 17 0 26 0;
#X connect 17 1 12 1;
#X connect 17 1 15 0;
#X connect 18 0 19 0;
#X connect 18 0 17 0;
#X connect 18 1 20 0;
#X connect 18 1 17 1;
#X connect 18 2 27 0;
#X connect 21 0 19 0;
#X connect 21 1 20 0;
#X connect 23 0 3 0;
#X connect 23 0 5 0;
#X connect 26 0 11 0;
