#N canvas -86 38 1512 884 12;
#X obj 63 36 tgl 19 0 empty empty empty 0 -10 0 12 #fcfcfc #000000 #000000 0 1;
#X obj 42 149 random 128;
#X obj 127 149 random 128;
#X obj 104 439 netsend -u -b;
#X obj 71 263 noteout;
#X text 109 35 MEDIA>MIDI>IACDRIVERS as input and output;
#X obj 364 154 print OSC-packet;
#X obj 352 213 makenote 60 500;
#X obj 367 248 noteout;
#X msg 352 97 listen 12345;
#X obj 352 122 netreceive -u -b;
#X obj 352 181 oscparse;
#X obj 210 349 oscparse;
#X listbox 210 375 20 0 0 0 - - - 0;
#X obj 15 297 oscformat -f f x;
#X obj 205 297 oscformat -f f /y;
#X msg 158 408 connect localhost 12345;
#X obj 63 74 metro 5000;
#X obj 42 223 makenote 60 5000;
#X connect 0 0 17 0;
#X connect 1 0 18 0;
#X connect 2 0 18 1;
#X connect 7 0 8 0;
#X connect 7 1 8 1;
#X connect 10 0 11 0;
#X connect 10 0 6 0;
#X connect 12 0 13 0;
#X connect 14 0 3 0;
#X connect 15 0 3 0;
#X connect 15 0 12 0;
#X connect 16 0 3 0;
#X connect 17 0 1 0;
#X connect 17 0 2 0;
#X connect 18 0 4 0;
#X connect 18 0 14 0;
#X connect 18 1 4 1;
#X connect 18 1 15 0;
